<svg width="913" height="68" viewBox="0 0 913 68" fill="none" xmlns="http://www.w3.org/2000/svg">
<g clip-path="url(#clip0_883_7284)">
<path d="M199.572 66.9677L173.863 1.03174H182.001L203.825 59.2927H202.067L223.891 1.03174H231.841L206.226 66.9677H199.572Z" fill="#011A57"/>
<path d="M240.348 66.9677V1.03174H247.928V66.9677H240.348Z" fill="#011A57"/>
<path d="M283.72 67.8091C280.702 67.8091 277.786 67.5316 274.982 66.9679C272.178 66.4042 269.605 65.5803 267.264 64.4876C264.923 63.3949 262.822 62.0767 260.979 60.5156L263.663 54.2455C265.575 55.8065 267.573 57.0814 269.674 58.0787C271.766 59.076 274.004 59.8132 276.38 60.2728C278.755 60.7411 281.233 60.9753 283.823 60.9753C288.505 60.9753 292.098 59.978 294.594 57.9833C297.089 55.9887 298.341 53.1788 298.341 49.5625C298.341 47.6285 297.955 46.0068 297.183 44.6973C296.412 43.3877 295.177 42.269 293.487 41.3324C291.789 40.3958 289.62 39.6152 286.97 38.9908L277.812 36.8401C272.452 35.5306 268.516 33.4232 266.021 30.5266C263.525 27.63 262.273 23.9009 262.273 19.3479C262.273 15.4194 263.217 12.0371 265.095 9.20127C266.973 6.36541 269.614 4.15395 273.001 2.55824C276.388 0.971197 280.273 0.17334 284.655 0.17334C287.365 0.17334 289.937 0.4682 292.373 1.05792C294.808 1.64764 297.046 2.50621 299.078 3.63361C301.111 4.75235 302.929 6.13125 304.532 7.74431L301.848 13.919C299.447 11.4908 296.84 9.73028 294.036 8.63757C291.232 7.54485 288.162 6.99849 284.835 6.99849C281.876 6.99849 279.27 7.48414 277.023 8.44677C274.768 9.41808 273.027 10.7883 271.801 12.5575C270.566 14.3353 269.948 16.5034 269.948 19.0531C269.948 21.9236 270.746 24.2478 272.349 26.017C273.953 27.7948 276.543 29.1217 280.119 29.9889L289.363 32.1397C295.031 33.4492 299.224 35.4959 301.943 38.2624C304.652 41.0375 306.007 44.6712 306.007 49.1548C306.007 52.8319 305.098 56.0754 303.28 58.8766C301.462 61.6864 298.89 63.8632 295.563 65.4242C292.235 66.9852 288.291 67.7657 283.729 67.7657L283.72 67.8091Z" fill="#011A57"/>
<path d="M318.398 66.9677V1.03174H325.979V66.9677H318.398Z" fill="#011A57"/>
<path d="M356.868 66.9677V7.77016H335.602V1.03174H385.63V7.76149H364.457V66.959H356.877L356.868 66.9677Z" fill="#011A57"/>
<path d="M395.242 66.9677V1.03174H433.342V7.57937H402.737V30.301H431.31V36.8486H402.737V60.4201H433.342V66.9677H395.242Z" fill="#011A57"/>
<path d="M473.492 66.5603V1.67367H491.603V13.9711H491.089C492.212 11.1786 493.738 8.78501 495.676 6.77302C497.614 4.7697 499.904 3.2 502.528 2.06392C505.161 0.927845 508.068 0.364141 511.258 0.364141C515.828 0.364141 519.661 1.50022 522.766 3.76371C525.87 6.03587 527.979 9.34871 529.103 13.7022H528.46C530.012 9.77365 532.576 6.57355 536.152 4.08458C539.728 1.59562 544.015 0.355469 549.023 0.355469C553.337 0.355469 556.981 1.27474 559.957 3.10461C562.932 4.93448 565.17 7.77034 566.68 11.6035C568.189 15.4454 568.943 20.2846 568.943 26.1211V66.5429H549.804V27.1878C549.804 23.1811 549.16 20.3019 547.866 18.5588C546.571 16.8156 544.547 15.9397 541.786 15.9397C539.633 15.9397 537.712 16.46 536.032 17.5094C534.351 18.5588 533.039 20.0591 532.087 22.019C531.135 23.979 530.664 26.3118 530.664 29.0176V66.5603H511.652V27.1878C511.652 23.1811 510.983 20.3019 509.646 18.5588C508.308 16.8156 506.344 15.9397 503.763 15.9397C501.516 15.9397 499.578 16.4861 497.94 17.5788C496.302 18.6715 495.033 20.1978 494.124 22.1578C493.215 24.1177 492.769 26.3639 492.769 28.8962V66.569H473.501L473.492 66.5603Z" fill="#011A57"/>
<path d="M605.165 68.0001C600.68 68.0001 596.864 67.0634 593.717 65.1902C590.57 63.317 588.195 60.4811 586.6 56.6913C585.005 52.9015 584.207 48.1664 584.207 42.4946V1.67383H603.476V41.4366C603.476 43.9689 603.801 46.0416 604.445 47.646C605.088 49.2591 606.065 50.4559 607.352 51.245C608.647 52.0342 610.242 52.4245 612.137 52.4245C614.289 52.4245 616.227 51.8781 617.959 50.7854C619.683 49.6927 621.038 48.1664 622.033 46.2064C623.019 44.2465 623.516 42.0003 623.516 39.468V1.67383H642.785V66.5518H624.674V54.2544H625.188C623.465 58.5298 620.875 61.886 617.428 64.323C613.98 66.7599 609.881 67.9827 605.139 67.9827L605.165 68.0001Z" fill="#011A57"/>
<path d="M681.605 67.9998C678.072 67.9998 674.642 67.6962 671.323 67.0805C668.004 66.4734 664.986 65.6669 662.268 64.6609C659.549 63.6636 657.2 62.4148 655.219 60.9318L659.746 48.2441C661.899 49.5536 664.146 50.6464 666.469 51.5136C668.802 52.3895 671.194 53.066 673.647 53.5429C676.108 54.0199 678.449 54.2627 680.696 54.2627C684.229 54.2627 686.921 53.699 688.782 52.563C690.635 51.4269 691.561 49.8138 691.561 47.7238C691.561 45.8939 690.995 44.515 689.88 43.6044C688.757 42.6851 687.033 42.0174 684.709 41.5751L673.33 39.7452C667.807 38.878 663.605 36.8053 660.715 33.5358C657.826 30.2663 656.385 26.277 656.385 21.5679C656.385 17.2925 657.465 13.5894 659.618 10.45C661.77 7.31057 664.917 4.84761 669.059 3.06111C673.201 1.2746 678.158 0.381348 683.937 0.381348C686.87 0.381348 689.76 0.641519 692.607 1.17053C695.454 1.69087 698.104 2.45404 700.565 3.46004C703.026 4.46603 705.152 5.74954 706.97 7.31924L702.057 19.7467C700.505 18.6107 698.712 17.6133 696.689 16.7374C694.665 15.8702 692.547 15.1937 690.352 14.7081C688.156 14.2311 686.064 13.9883 684.074 13.9883C680.541 13.9883 677.883 14.578 676.117 15.7574C674.35 16.9369 673.467 18.5673 673.467 20.666C673.467 22.3224 673.981 23.658 675.019 24.6553C676.057 25.6613 677.737 26.3377 680.061 26.6846L691.055 28.5145C696.92 29.5639 701.294 31.6539 704.183 34.7933C707.073 37.9327 708.514 42.0347 708.514 47.0907C708.514 51.3662 707.416 55.0693 705.213 58.2087C703.017 61.3481 699.913 63.7676 695.9 65.4674C691.887 67.1672 687.127 68.0171 681.605 68.0171V67.9998Z" fill="#011A57"/>
<path d="M751.58 68.0001C744.248 68.0001 738.04 66.6472 732.955 63.9415C727.869 61.2357 723.985 57.3852 721.318 52.3639C718.642 47.3512 717.305 41.2719 717.305 34.1172C717.305 27.4048 718.557 21.5163 721.052 16.4603C723.556 11.4043 727.132 7.45837 731.788 4.6225C736.445 1.78664 741.916 0.373047 748.219 0.373047C754.084 0.373047 759.152 1.65656 763.414 4.23225C767.684 6.80794 770.96 10.5371 773.241 15.4196C775.522 20.3021 776.671 26.234 776.671 33.2066V39.0951H732.955V28.1073H762.445L760.636 30.1973C760.636 24.2654 759.598 19.9986 757.531 17.3796C755.465 14.7605 752.489 13.451 748.604 13.451C745.843 13.451 743.476 14.1534 741.487 15.541C739.506 16.9373 737.971 19.01 736.899 21.7504C735.819 24.4996 735.278 27.9598 735.278 32.1486V35.288C735.278 39.5635 735.904 43.0064 737.156 45.6254C738.408 48.2445 740.278 50.1871 742.782 51.4446C745.286 52.7108 748.476 53.3438 752.352 53.3438C755.456 53.3438 758.603 52.8842 761.793 51.9736C764.983 51.0543 767.83 49.6841 770.326 47.8542L775.368 60.672C772.006 63.1176 768.25 64.9475 764.117 66.1616C759.975 67.3844 755.79 67.9915 751.571 67.9915L751.58 68.0001Z" fill="#011A57"/>
<path d="M809.659 68.0001C805.174 68.0001 801.358 67.0634 798.211 65.1902C795.064 63.317 792.689 60.4811 791.094 56.6913C789.499 52.9015 788.701 48.1664 788.701 42.4946V1.67383H807.97V41.4366C807.97 43.9689 808.296 46.0416 808.939 47.646C809.582 49.2591 810.56 50.4559 811.846 51.245C813.141 52.0342 814.736 52.4245 816.631 52.4245C818.783 52.4245 820.721 51.8781 822.453 50.7854C824.177 49.6927 825.532 48.1664 826.527 46.2064C827.513 44.2465 828.01 42.0003 828.01 39.468V1.67383H847.279V66.5518H829.168V54.2544H829.682C827.959 58.5298 825.369 61.886 821.922 64.323C818.474 66.7599 814.376 67.9827 809.633 67.9827L809.659 68.0001Z" fill="#011A57"/>
<path d="M886.099 67.9998C882.566 67.9998 879.136 67.6962 875.817 67.0805C872.499 66.4734 869.48 65.6669 866.762 64.6609C864.043 63.6636 861.694 62.4148 859.713 60.9318L864.241 48.2441C866.393 49.5536 868.64 50.6464 870.964 51.5136C873.296 52.3895 875.689 53.066 878.141 53.5429C880.602 54.0199 882.943 54.2627 885.19 54.2627C888.723 54.2627 891.416 53.699 893.276 52.563C895.129 51.4269 896.055 49.8138 896.055 47.7238C896.055 45.8939 895.489 44.515 894.374 43.6044C893.251 42.6851 891.527 42.0174 889.203 41.5751L877.824 39.7452C872.301 38.878 868.1 36.8053 865.21 33.5358C862.32 30.2663 860.879 26.277 860.879 21.5679C860.879 17.2925 861.96 13.5894 864.112 10.45C866.264 7.31057 869.412 4.84761 873.553 3.06111C877.695 1.2746 882.652 0.381348 888.431 0.381348C891.364 0.381348 894.254 0.641519 897.101 1.17053C899.948 1.69955 902.598 2.45404 905.059 3.46004C907.52 4.46603 909.647 5.74954 911.465 7.31924L906.551 19.7467C904.999 18.6107 903.207 17.6133 901.183 16.7374C899.159 15.8702 897.041 15.1937 894.846 14.7081C892.651 14.2311 890.558 13.9883 888.569 13.9883C885.036 13.9883 882.377 14.578 880.611 15.7574C878.844 16.9369 877.961 18.5673 877.961 20.666C877.961 22.3224 878.476 23.658 879.513 24.6553C880.551 25.6613 882.232 26.3377 884.555 26.6846L895.549 28.5145C901.414 29.5639 905.788 31.6539 908.678 34.7933C911.568 37.9327 913.008 42.0347 913.008 47.0907C913.008 51.3662 911.911 55.0693 909.707 58.2087C907.511 61.3481 904.407 63.7676 900.394 65.4674C896.381 67.1672 891.621 68.0171 886.099 68.0171V67.9998Z" fill="#011A57"/>
<path d="M54.4701 67.8091H2.51255C1.12336 67.8091 0 66.673 0 65.2681V12.7222C0 10.4588 2.70978 9.32267 4.28763 10.9271L56.2452 63.4729C57.8316 65.0773 56.7082 67.8091 54.4701 67.8091Z" fill="#DD489C"/>
<path d="M11.7211 0H63.6786C65.0678 0 66.1912 1.13608 66.1912 2.541V55.0869C66.1912 57.3503 63.4814 58.4864 61.9035 56.882L9.94599 4.33618C8.35957 2.74047 9.48293 0 11.7211 0Z" fill="#FC982B"/>
<path d="M86.5336 67.8091H138.491C139.88 67.8091 141.004 66.673 141.004 65.2681V12.7222C141.004 10.4588 138.294 9.32267 136.716 10.9271L84.7585 63.4729C83.1721 65.0773 84.2954 67.8091 86.5336 67.8091Z" fill="#011A57"/>
<path d="M129.29 0H77.3329C75.9437 0 74.8203 1.13608 74.8203 2.541V55.0869C74.8203 57.3503 77.5301 58.4864 79.1079 56.882L131.065 4.33618C132.652 2.74047 131.529 0 129.29 0Z" fill="#1EAD9F"/>
</g>
<defs>
<clipPath id="clip0_883_7284">
<rect width="913" height="68" fill="white"/>
</clipPath>
</defs>
</svg>
