<?xml version="1.0" encoding="UTF-8" standalone="no"?>
<svg
   width="130"
   height="34"
   fill="none"
   version="1.1"
   id="svg6"
   xmlns="http://www.w3.org/2000/svg"
   xmlns:svg="http://www.w3.org/2000/svg">
  <g
     clip-path="url(#a)"
     transform="translate(-21.5 -.5)"
     id="g5">
    <path
       d="M63.798 14.106 58.35.672h1.724l4.626 11.87h-.373L68.953.672h1.684L65.21 14.106ZM72.44 14.106V.672h1.607v13.434ZM81.633 14.277c-.64 0-1.257-.056-1.852-.171a7.423 7.423 0 0 1-1.635-.506 5.961 5.961 0 0 1-1.333-.809l.57-1.277a6.065 6.065 0 0 0 2.695 1.228 8.454 8.454 0 0 0 1.577.143c.993 0 1.754-.203 2.283-.61.529-.406.794-.979.794-1.715 0-.395-.082-.725-.245-.992-.164-.267-.425-.495-.783-.685-.36-.191-.82-.35-1.382-.477l-1.94-.439c-1.137-.266-1.971-.696-2.5-1.286-.529-.59-.794-1.35-.794-2.278 0-.8.2-1.49.598-2.067.398-.578.958-1.028 1.676-1.354.718-.323 1.54-.485 2.47-.485.574 0 1.12.06 1.635.18.516.12.99.295 1.422.525.43.228.816.508 1.155.837l-.569 1.258a4.78 4.78 0 0 0-1.655-1.076 5.52 5.52 0 0 0-1.95-.334c-.627 0-1.18.1-1.656.295-.478.198-.847.477-1.107.838-.262.362-.392.804-.392 1.323 0 .585.169 1.059.508 1.42.34.361.89.632 1.647.808l1.96.439c1.2.266 2.09.683 2.665 1.247.575.566.862 1.306.862 2.22 0 .749-.193 1.41-.578 1.98-.385.573-.93 1.016-1.636 1.334-.705.318-1.54.477-2.508.477zM88.983 14.106V.672h1.607v13.434ZM97.136 14.106V2.043H92.63V.672h10.603v1.37h-4.487v12.062h-1.607zM105.27 14.106V.672h8.075v1.334h-6.487v4.63h6.056v1.333h-6.056v4.803h6.487v1.334zM58.35 34.207V20.988h3.838v2.506h-.109a4.496 4.496 0 0 1 .972-1.467 4.48 4.48 0 0 1 1.453-.96 4.78 4.78 0 0 1 1.85-.346c.969 0 1.78.232 2.439.693.658.463 1.105 1.138 1.343 2.025H70c.329-.8.872-1.453 1.63-1.96.758-.507 1.667-.76 2.728-.76.914 0 1.686.188 2.317.56.63.373 1.105.951 1.425 1.732.32.783.48 1.769.48 2.958v8.236h-4.057v-8.022c0-.816-.136-1.403-.41-1.758-.275-.355-.704-.534-1.29-.534-.455 0-.862.106-1.219.32-.356.214-.634.52-.836.919-.201.4-.301.875-.301 1.426v7.649h-4.03v-8.022c0-.816-.141-1.403-.425-1.758-.283-.355-.7-.534-1.247-.534-.476 0-.887.111-1.234.334a2.23 2.23 0 0 0-.809.933c-.192.4-.287.857-.287 1.373v7.676h-4.084zM86.257 34.5c-.95 0-1.759-.19-2.426-.572-.667-.382-1.17-.96-1.508-1.732-.338-.772-.508-1.737-.508-2.893v-8.315H85.9v8.102c0 .516.07.938.206 1.265.136.329.343.572.616.733.274.16.612.24 1.014.24.456 0 .867-.11 1.234-.334a2.35 2.35 0 0 0 .863-.932c.21-.4.315-.857.315-1.373v-7.703h4.084v13.219h-3.839v-2.506h.11c-.366.872-.915 1.555-1.646 2.052-.73.496-1.6.746-2.604.746zM102.458 34.5c-.749 0-1.476-.062-2.18-.187a11.875 11.875 0 0 1-1.919-.493 5.91 5.91 0 0 1-1.494-.76l.96-2.585c.456.267.932.49 1.425.666a9.739 9.739 0 0 0 1.521.413 8.155 8.155 0 0 0 1.494.147c.749 0 1.319-.115 1.714-.346.392-.232.589-.56.589-.986 0-.373-.12-.654-.357-.84-.238-.187-.603-.323-1.095-.413l-2.412-.373c-1.17-.177-2.061-.599-2.674-1.265-.612-.666-.918-1.479-.918-2.438 0-.872.23-1.626.686-2.266.456-.64 1.123-1.141 2-1.505.878-.364 1.929-.546 3.154-.546.622 0 1.234.053 1.837.16a8.725 8.725 0 0 1 1.687.467c.522.205.972.467 1.358.786l-1.042 2.532a5.956 5.956 0 0 0-1.137-.613 7.757 7.757 0 0 0-1.344-.413 6.505 6.505 0 0 0-1.33-.147c-.749 0-1.312.12-1.687.36-.374.241-.561.573-.561 1 0 .338.109.61.329.814.22.205.576.342 1.068.413l2.33.373c1.244.214 2.17.64 2.783 1.28.612.639.918 1.475.918 2.505 0 .87-.233 1.625-.7 2.265-.465.64-1.123 1.133-1.974 1.479-.85.346-1.859.52-3.029.52zM117.288 34.5c-1.554 0-2.87-.276-3.948-.827-1.077-.551-1.901-1.336-2.466-2.359-.567-1.021-.851-2.26-.851-3.718 0-1.367.266-2.567.795-3.597a5.821 5.821 0 0 1 2.275-2.412c.987-.578 2.147-.866 3.482-.866 1.244 0 2.318.262 3.221.786.905.525 1.599 1.285 2.083 2.28.483.995.727 2.203.727 3.624v1.2h-9.266v-2.239h6.251l-.384.426c0-1.209-.22-2.078-.658-2.612-.438-.533-1.068-.8-1.892-.8-.585 0-1.087.143-1.508.426-.42.284-.745.706-.973 1.265-.229.56-.343 1.265-.343 2.118v.64c0 .871.133 1.573.398 2.106.265.534.661.93 1.192 1.186.531.258 1.207.387 2.028.387a7.54 7.54 0 0 0 2.001-.28 5.788 5.788 0 0 0 1.809-.839l1.069 2.612a7.86 7.86 0 0 1-2.385 1.118 9.697 9.697 0 0 1-2.659.373zM129.596 34.5c-.95 0-1.759-.19-2.426-.572-.667-.382-1.171-.96-1.509-1.732-.338-.772-.507-1.737-.507-2.893v-8.315h4.084v8.102c0 .516.069.938.206 1.265.136.329.343.572.616.733.274.16.612.24 1.014.24a2.33 2.33 0 0 0 1.234-.334c.365-.222.652-.533.863-.932.209-.4.315-.857.315-1.373v-7.703h4.083v13.219h-3.838v-2.506h.109c-.365.872-.914 1.555-1.645 2.052-.73.496-1.599.746-2.604.746zM145.797 34.5a12.41 12.41 0 0 1-2.179-.187 11.872 11.872 0 0 1-1.919-.493 5.914 5.914 0 0 1-1.494-.76l.96-2.585c.456.267.932.49 1.425.666a9.728 9.728 0 0 0 1.521.413 8.147 8.147 0 0 0 1.494.147c.749 0 1.319-.115 1.714-.346.392-.232.589-.56.589-.986 0-.373-.12-.654-.357-.84-.238-.187-.603-.323-1.096-.413l-2.411-.373c-1.171-.177-2.061-.599-2.674-1.265-.612-.666-.918-1.479-.918-2.438 0-.872.229-1.626.685-2.266.457-.64 1.124-1.141 2.001-1.505.878-.364 1.929-.546 3.154-.546.621 0 1.234.053 1.837.16a8.725 8.725 0 0 1 1.687.467 4.94 4.94 0 0 1 1.358.786l-1.042 2.532a5.935 5.935 0 0 0-1.138-.613 7.746 7.746 0 0 0-1.343-.413 6.505 6.505 0 0 0-1.33-.147c-.749 0-1.312.12-1.687.36-.374.241-.561.573-.561 1 0 .338.109.61.329.814.22.205.576.342 1.068.413l2.33.373c1.243.214 2.17.64 2.783 1.28.612.639.918 1.475.918 2.505 0 .87-.233 1.625-.7 2.265-.465.64-1.123 1.133-1.974 1.479-.85.346-1.859.52-3.03.52z"
       fill="#011a57"
       id="path1"
       style="fill:#ffffff;fill-opacity:1" />
    <path
       d="M33.045 34.207H22.032a.525.525 0 0 1-.532-.518V22.983c0-.461.574-.693.909-.366L33.42 33.323c.336.327.098.884-.376.884z"
       fill="#fc982b"
       id="path2"
       style="fill:#ffffff;fill-opacity:1" />
    <path
       d="M23.985 20.39h11.012c.294 0 .532.232.532.519v10.706c0 .46-.574.692-.908.365L23.609 21.274c-.337-.327-.099-.883.376-.883z"
       fill="#1ead9f"
       id="path3"
       style="fill:#ffffff;fill-opacity:1" />
    <path
       d="M39.84 34.207h11.012a.525.525 0 0 0 .533-.518V22.983c0-.461-.574-.693-.909-.366L39.464 33.323c-.336.327-.098.884.376.884z"
       fill="#011a57"
       id="path4"
       style="fill:#ffffff;fill-opacity:1" />
    <path
       d="M48.902 20.39H37.89a.525.525 0 0 0-.533.519v10.706c0 .46.575.692.91.365l11.011-10.706c.336-.327.098-.883-.376-.883z"
       fill="#dd489c"
       id="path5"
       style="fill:#ffffff;fill-opacity:1" />
  </g>
  <defs
     id="defs6">
    <clipPath
       id="a">
      <path
         fill="#fff"
         transform="translate(21.5 .5)"
         d="M0 0h130v34H0z"
         id="path6" />
    </clipPath>
  </defs>
</svg>
