<svg width="631" height="62" viewBox="0 0 631 62" fill="none" xmlns="http://www.w3.org/2000/svg">
<path d="M24.5279 61.0619L0 0.9381H7.76423L28.5865 54.0688H26.9101L47.7323 0.9381H55.3201L30.8804 61.0619H24.5279Z" fill="#01174E"/>
<path d="M63.4207 61.0619V0.9381H70.6556V61.0619H63.4207Z" fill="#01174E"/>
<path d="M104.78 61.8294C101.898 61.8294 99.1037 61.5736 96.398 61.0619C93.7511 60.5502 91.3101 59.8111 89.0749 58.8446C86.8398 57.8212 84.8399 56.5988 83.0753 55.1774L85.6339 49.4635C87.4574 50.8849 89.369 52.0504 91.3689 52.9601C93.3688 53.8698 95.4863 54.552 97.7214 55.0069C100.015 55.4049 102.398 55.6039 104.868 55.6039C109.338 55.6039 112.75 54.6942 115.103 52.8748C117.514 51.0555 118.72 48.497 118.72 45.1995C118.72 43.437 118.338 41.9587 117.573 40.7648C116.867 39.5708 115.691 38.5475 114.044 37.6946C112.456 36.8418 110.397 36.1311 107.868 35.5626L99.1331 33.6011C94.0158 32.4072 90.2513 30.5025 87.8397 27.8872C85.4869 25.215 84.3105 21.8038 84.3105 17.6534C84.3105 14.0715 85.1928 11.0014 86.9574 8.44291C88.7808 5.8276 91.3101 3.80926 94.5452 2.3879C97.7803 0.909673 101.486 0.170562 105.662 0.170562C108.25 0.170562 110.691 0.454835 112.985 1.02338C115.338 1.53507 117.485 2.30261 119.426 3.32599C121.367 4.34938 123.102 5.60018 124.632 7.0784L122.073 12.707C119.779 10.4897 117.279 8.89775 114.573 7.93122C111.926 6.90784 109.015 6.39615 105.839 6.39615C103.015 6.39615 100.515 6.85099 98.339 7.76066C96.2215 8.61348 94.5746 9.86428 93.3982 11.5131C92.2218 13.105 91.6336 15.0665 91.6336 17.3975C91.6336 20.0128 92.3982 22.1449 93.9276 23.7937C95.4569 25.3856 97.9273 26.5796 101.339 27.3755L110.162 29.337C115.573 30.531 119.573 32.4072 122.161 34.9656C124.749 37.4672 126.043 40.7648 126.043 44.8583C126.043 48.2127 125.161 51.1692 123.396 53.7276C121.691 56.2861 119.25 58.276 116.073 59.6974C112.897 61.1188 109.132 61.8294 104.78 61.8294Z" fill="#01174E"/>
<path d="M137.865 61.0619V0.9381H145.099V61.0619H137.865Z" fill="#01174E"/>
<path d="M174.548 61.0619V7.0784H154.255V0.9381H201.987V7.0784H181.782V61.0619H174.548Z" fill="#01174E"/>
<path d="M211.188 61.0619V0.9381H247.539V6.90784H218.335V27.6314H245.598V33.6011H218.335V55.0922H247.539V61.0619H211.188Z" fill="#01174E"/>
<path d="M285.142 61.0619V0.9381H298.641L316.552 38.8033H314.522L332.433 0.9381H345.667V61.0619H333.227V20.2118H334.021L319.199 51.1692H311.523L296.7 20.1265H297.67V61.0619H285.142Z" fill="#01174E"/>
<path d="M382.899 62C374.723 62 368.547 59.9817 364.371 55.945C360.195 51.8514 358.107 45.768 358.107 37.6946V0.9381H371.517V37.3535C371.517 41.9587 372.459 45.3416 374.341 47.5021C376.282 49.6057 379.164 50.6575 382.987 50.6575C386.869 50.6575 389.722 49.6057 391.546 47.5021C393.428 45.3416 394.369 41.9587 394.369 37.3535V0.9381H407.692V37.6946C407.692 45.768 405.604 51.8514 401.427 55.945C397.251 59.9817 391.075 62 382.899 62Z" fill="#01174E"/>
<path d="M440.715 62C437.774 62 434.892 61.7442 432.069 61.2325C429.245 60.7776 426.598 60.1238 424.128 59.271C421.716 58.3613 419.628 57.2811 417.864 56.0303L421.658 45.7964C423.422 46.9335 425.334 47.9 427.392 48.696C429.451 49.492 431.598 50.0889 433.833 50.4869C436.127 50.8849 438.392 51.0839 440.627 51.0839C444.156 51.0839 446.803 50.4869 448.568 49.293C450.332 48.099 451.215 46.3934 451.215 44.1761C451.215 42.9253 450.95 41.9019 450.42 41.1059C449.891 40.2531 449.038 39.5708 447.862 39.0591C446.744 38.4906 445.274 38.0073 443.45 37.6094L434.274 35.6479C429.039 34.5108 425.157 32.5493 422.628 29.7634C420.158 26.9207 418.922 23.282 418.922 18.8473C418.922 15.0381 419.922 11.7405 421.922 8.95461C423.922 6.11188 426.687 3.92297 430.216 2.3879C433.804 0.795965 437.921 0 442.568 0C445.215 0 447.774 0.255846 450.244 0.767538C452.714 1.22237 454.979 1.90463 457.038 2.8143C459.155 3.72398 460.949 4.83264 462.42 6.1403L458.626 16.033C456.508 14.3274 454.067 13.0481 451.303 12.1953C448.597 11.3425 445.803 10.9161 442.921 10.9161C440.686 10.9161 438.745 11.2288 437.098 11.8542C435.51 12.4227 434.274 13.2471 433.392 14.3274C432.569 15.4076 432.157 16.7153 432.157 18.2503C432.157 20.0128 432.716 21.4626 433.833 22.5997C435.01 23.68 436.921 24.5044 439.568 25.0729L448.656 26.9491C453.95 28.0293 457.891 29.934 460.479 32.663C463.126 35.3352 464.449 38.8602 464.449 43.238C464.449 46.9904 463.478 50.2879 461.537 53.1307C459.596 55.9166 456.832 58.1055 453.244 59.6974C449.656 61.2325 445.48 62 440.715 62Z" fill="#01174E"/>
<path d="M473.919 61.0619V0.9381H513.622V11.2572H486.888V25.414H511.681V35.7331H486.888V50.7428H513.622V61.0619H473.919Z" fill="#01174E"/>
<path d="M549.45 62C541.274 62 535.098 59.9817 530.922 55.945C526.746 51.8514 524.658 45.768 524.658 37.6946V0.9381H538.069V37.3535C538.069 41.9587 539.01 45.3416 540.892 47.5021C542.833 49.6057 545.715 50.6575 549.538 50.6575C553.42 50.6575 556.273 49.6057 558.097 47.5021C559.979 45.3416 560.92 41.9587 560.92 37.3535V0.9381H574.243V37.6946C574.243 45.768 572.155 51.8514 567.978 55.945C563.802 59.9817 557.626 62 549.45 62Z" fill="#01174E"/>
<path d="M607.266 62C604.325 62 601.443 61.7442 598.62 61.2325C595.796 60.7776 593.149 60.1238 590.679 59.271C588.267 58.3613 586.179 57.2811 584.415 56.0303L588.209 45.7964C589.973 46.9335 591.885 47.9 593.943 48.696C596.002 49.492 598.149 50.0889 600.384 50.4869C602.678 50.8849 604.943 51.0839 607.178 51.0839C610.707 51.0839 613.354 50.4869 615.119 49.293C616.883 48.099 617.766 46.3934 617.766 44.1761C617.766 42.9253 617.501 41.9019 616.971 41.1059C616.442 40.2531 615.589 39.5708 614.413 39.0591C613.295 38.4906 611.825 38.0073 610.001 37.6094L600.825 35.6479C595.59 34.5108 591.708 32.5493 589.179 29.7634C586.709 26.9207 585.473 23.282 585.473 18.8473C585.473 15.0381 586.473 11.7405 588.473 8.95461C590.473 6.11188 593.238 3.92297 596.767 2.3879C600.355 0.795965 604.472 0 609.119 0C611.766 0 614.325 0.255846 616.795 0.767538C619.265 1.22237 621.53 1.90463 623.589 2.8143C625.706 3.72398 627.5 4.83264 628.971 6.1403L625.177 16.033C623.059 14.3274 620.618 13.0481 617.854 12.1953C615.148 11.3425 612.354 10.9161 609.472 10.9161C607.237 10.9161 605.296 11.2288 603.649 11.8542C602.061 12.4227 600.825 13.2471 599.943 14.3274C599.12 15.4076 598.708 16.7153 598.708 18.2503C598.708 20.0128 599.267 21.4626 600.384 22.5997C601.561 23.68 603.472 24.5044 606.119 25.0729L615.207 26.9491C620.501 28.0293 624.442 29.934 627.03 32.663C629.677 35.3352 631 38.8602 631 43.238C631 46.9904 630.029 50.2879 628.088 53.1307C626.147 55.9166 623.383 58.1055 619.795 59.6974C616.207 61.2325 612.031 62 607.266 62Z" fill="#01174E"/>
</svg>
